<?xml version="1.0" encoding="utf-8"?>
<!-- Generator: Adobe Illustrator 24.0.3, SVG Export Plug-In . SVG Version: 6.00 Build 0)  -->
<svg version="1.1" id="Camada_2" xmlns="http://www.w3.org/2000/svg" xmlns:xlink="http://www.w3.org/1999/xlink" x="0px" y="0px"
	 viewBox="0 0 841.9 1190.6" enable-background="new 0 0 841.9 1190.6" xml:space="preserve">
<g>
	<g>
		<path d="M563.7,503.7c-7.2-16.7-17.3-31.5-30.1-44.2c-12.7-12.6-28-22.6-45.5-29.8c-17.5-7.2-36.6-10.8-56.9-10.8
			c-20,0-38.9,3.7-56.3,10.8c-17.3,7.2-32.6,17.3-45.3,29.8c-12.7,12.6-22.9,27.4-30.2,44.1c-7.4,17-11.1,35.2-11.1,54.3V697h143
			c21.1,0,40.7-3.7,58.2-10.8c17.5-7.2,32.8-17.3,45.5-29.8c12.7-12.6,22.6-27.5,29.5-44.4c6.8-16.8,10.3-34.9,10.3-54
			C574.7,538.8,571,520.6,563.7,503.7z M557,608.9c-6.4,15.8-15.7,29.8-27.7,41.7c-11.8,11.8-26.2,21.2-42.8,28.1
			c-16.6,6.8-35.1,10.3-55.2,10.3h-135v-131c0-17.9,3.5-35.1,10.4-51.1c7-15.8,16.5-29.8,28.5-41.6c12.2-11.9,26.5-21.3,42.7-28.1
			c16.4-6.8,34.3-10.3,53.2-10.3c19.3,0,37.4,3.4,53.8,10.3c16.5,6.8,30.9,16.3,42.9,28.1c12,11.9,21.6,25.8,28.4,41.6
			c6.8,15.9,10.3,33,10.3,51C566.6,575.9,563.4,593,557,608.9z"/>
	</g>
	<g>
		<g>
			<g>
				<path fill="#ED1C24" d="M403.9,623.7c0,2.8-0.5,5.4-1.5,7.9c-1,2.5-2.4,4.6-4.2,6.3c-1.8,1.8-3.8,3.2-6.2,4.2
					c-2.4,1-4.9,1.5-7.6,1.5H365v-20c0-3,0.5-5.7,1.5-8.2c1-2.5,2.4-4.6,4.2-6.4c1.8-1.8,3.8-3.1,6.2-4.1c2.3-1,4.9-1.4,7.6-1.4
					s5.2,0.5,7.6,1.5c2.3,1,4.4,2.4,6.2,4.2c1.8,1.8,3.2,3.9,4.2,6.4C403.4,618.2,403.9,620.9,403.9,623.7z M370.5,638.3h14
					c1.9,0,3.8-0.4,5.4-1.1c1.7-0.7,3.2-1.8,4.4-3.1c1.3-1.3,2.3-2.9,3-4.6c0.7-1.8,1.1-3.7,1.1-5.8c0-2.1-0.4-4.1-1.1-5.9
					c-0.7-1.8-1.8-3.4-3-4.6c-1.3-1.3-2.7-2.3-4.4-3c-1.7-0.7-3.5-1.1-5.4-1.1s-3.8,0.3-5.5,1c-1.7,0.7-3.1,1.7-4.4,2.9
					c-1.3,1.3-2.3,2.8-3,4.6c-0.7,1.8-1.1,3.8-1.1,6.1L370.5,638.3L370.5,638.3z"/>
			</g>
		</g>
		<path d="M327.7,612.5v31.1h-5.5v-35.5c0-2.2,1.8-3.9,3.9-3.9l0,0c1,0,2.1,0.4,2.8,1.1l12.7,12.7l12.7-12.7
			c0.7-0.7,1.7-1.1,2.8-1.1l0,0c2.2,0,3.9,1.8,3.9,3.9v35.5h-5.5v-31.1l-13.9,13.9L327.7,612.5z"/>
		<path d="M441,623.8c0.1-0.1,0.3-0.3,0.4-0.4c1.7-1.7,2.8-3.8,3.1-6c0.5-3.9-0.6-7.2-3.2-9.8c-2.2-2.2-4.8-3.3-8-3.3h-25.2
			c-0.1,0-0.2,0.1-0.2,0.2V638v2.5v2.9c0,0.1,0.1,0.2,0.2,0.2h25.2c3.1,0,5.8-1.1,8-3.3c1.9-1.9,3-4.2,3.3-6.8
			c0.2-2.6-0.5-5.1-1.8-7.3c-0.6-1.1-1.2-1.7-1.8-2.2C440.9,624,440.9,623.8,441,623.8z M433.3,626.7c1.5,0,2.9,0.5,3.9,1.6
			c1.1,1.1,1.8,2.6,1.7,4.2c-0.1,1.7-0.7,3-1.9,4.2c-1,0.9-2.4,1.4-3.8,1.4h-19.4c-0.1,0-0.2-0.1-0.2-0.2v-27.7
			c0-0.1,0.1-0.2,0.2-0.2h19.4c1.4,0,2.7,0.5,3.7,1.3c1.5,1.3,2.2,3,2,4.9c-0.1,1.1-0.5,2.2-1.3,3c-1.2,1.4-2.6,2.1-4.4,2.1h-9
			c-1.5,0-2.8,1.3-2.8,2.8l0,0c0,1.5,1.3,2.8,2.8,2.8H433.3L433.3,626.7z"/>
		<path d="M454.5,643.7H449v-37c0-1.5,1.3-2.8,2.8-2.8l0,0c1.5,0,2.8,1.3,2.8,2.8L454.5,643.7L454.5,643.7z"/>
	</g>
	<g>
		<g>
			<g>
				<path fill="#FCAF17" d="M403.9,597.5h-20.4c-3,0-5.8-0.5-8.3-1.5c-2.5-1-4.7-2.5-6.5-4.3c-1.8-1.8-3.3-3.9-4.2-6.3
					c-1-2.4-1.5-5-1.5-7.7s0.5-5.3,1.6-7.8c1-2.4,2.5-4.5,4.3-6.3c1.8-1.8,4-3.3,6.5-4.3c2.5-1,5.2-1.5,8.1-1.5s5.5,0.5,8,1.5
					c2.5,1,4.6,2.5,6.4,4.3c1.8,1.8,3.3,3.9,4.3,6.3c1.1,2.5,1.6,5,1.6,7.8L403.9,597.5L403.9,597.5z M383.5,563.4
					c-2.2,0-4.2,0.4-6,1.1c-1.8,0.7-3.4,1.8-4.7,3.1c-1.3,1.3-2.3,2.8-3.1,4.6c-0.7,1.7-1.1,3.6-1.1,5.5c0,2,0.3,3.9,1.1,5.6
					c0.7,1.7,1.7,3.2,3,4.5c1.3,1.3,2.9,2.3,4.7,3.1c1.8,0.7,3.9,1.1,6.2,1.1h14.9v-14.3c0-1.9-0.4-3.8-1.1-5.5
					c-0.7-1.8-1.8-3.3-3.1-4.6c-1.3-1.3-2.9-2.3-4.7-3.1C387.6,563.7,385.6,563.4,383.5,563.4z"/>
			</g>
		</g>
		<g>
			<g>
				<path fill="#FCAF17" d="M522.8,597.5h-20.4c-3,0-5.8-0.5-8.3-1.5c-2.5-1-4.7-2.5-6.5-4.3c-1.8-1.8-3.3-3.9-4.2-6.3
					c-1-2.4-1.5-5-1.5-7.7s0.5-5.3,1.6-7.8c1-2.4,2.5-4.5,4.3-6.3c1.8-1.8,4-3.3,6.5-4.3c2.5-1,5.2-1.5,8.1-1.5s5.5,0.5,8,1.5
					c2.5,1,4.6,2.5,6.4,4.3c1.8,1.8,3.3,3.9,4.3,6.3c1.1,2.5,1.6,5,1.6,7.8L522.8,597.5L522.8,597.5z M502.4,563.4
					c-2.2,0-4.2,0.4-6,1.1c-1.8,0.7-3.4,1.8-4.7,3.1c-1.3,1.3-2.3,2.8-3.1,4.6c-0.7,1.7-1.1,3.6-1.1,5.5c0,2,0.3,3.9,1.1,5.6
					c0.7,1.7,1.7,3.2,3,4.5c1.3,1.3,2.9,2.3,4.7,3.1c1.8,0.7,3.9,1.1,6.2,1.1h14.9v-14.3c0-1.9-0.4-3.8-1.1-5.5
					c-0.7-1.8-1.8-3.3-3.1-4.6c-1.3-1.3-2.9-2.3-4.7-3.1C506.5,563.7,504.5,563.4,502.4,563.4z"/>
			</g>
		</g>
		<path fill="#1B75BC" d="M427.8,557.9h10c1.5,0,2.9,1.3,2.9,2.9l0,0c0,1.5-1.3,2.9-2.9,2.9h-10c-3.9,0-7.2,1.4-10,4.2
			c-2.7,2.8-4.2,6.1-4.2,10c0,3.8,1.5,7.4,4.2,10c2.8,2.8,6.1,4.2,10,4.2h17v5.6h-17c-5.5,0-10.2-1.9-14-5.8s-5.8-8.6-5.8-14
			c0-5.5,1.9-10.2,5.8-14C417.7,559.8,422.4,557.9,427.8,557.9z"/>
		<path d="M353.3,560.7v14.1h-25.5v-14.1c0-1.5-1.3-2.9-2.9-2.9l0,0c-1.5,0-2.9,1.3-2.9,2.9v17.9v1.9v17h5.6v-17h25.5v17h5.6v-36.8
			c0-1.5-1.3-2.9-2.9-2.9l0,0C354.5,557.9,353.3,559.2,353.3,560.7z"/>
		<path fill="#1B75BC" d="M465.2,572.1l8.2-9.7c1.5-1.8,0.2-4.7-2.2-4.7c-0.9,0-1.6,0.3-2.2,1l-14.5,17.1v-15.1
			c0-1.5-1.3-2.9-2.9-2.9c-1.5,0-2.9,1.3-2.9,2.9v36.8h5.6v-12.9l6.9-8.2l17.3,21.1h7L465.2,572.1z"/>
	</g>
	<g>
		<path d="M288.2,718.6h3.4v23h-3.4V718.6z"/>
		<path d="M297.5,718.6h3.2l10.1,16.4h0.1v-16.4h3.4v23h-3.2L301,725.3h-0.1v16.4h-3.4C297.5,741.6,297.5,718.6,297.5,718.6z"/>
		<path d="M319.9,730.2c0-2.7,0.1-4.4,0.2-5.4s0.4-1.7,0.7-2.2c0.5-1.1,1.4-2,2.6-2.9c1.2-0.9,2.6-1.3,4.4-1.3
			c1.8,0,3.3,0.5,4.4,1.3c1.2,0.9,2,1.8,2.5,2.9c0.4,0.6,0.6,1.3,0.8,2.2c0.1,0.9,0.2,2.7,0.2,5.4c0,2.6-0.1,4.4-0.2,5.4
			c-0.1,0.9-0.4,1.7-0.8,2.2c-0.5,1.1-1.4,2-2.5,2.8c-1.2,0.9-2.7,1.3-4.4,1.3c-1.8-0.1-3.2-0.5-4.4-1.3c-1.2-0.8-2.1-1.8-2.6-2.8
			c-0.2-0.3-0.3-0.7-0.5-1c-0.1-0.3-0.2-0.7-0.3-1.3C320,734.6,319.9,732.8,319.9,730.2z M323.3,730.2c0,2.3,0.1,3.8,0.2,4.6
			s0.5,1.4,0.9,1.9c0.3,0.5,0.8,0.9,1.4,1.1c0.6,0.3,1.3,0.5,2.1,0.5s1.5-0.2,2.1-0.5c0.6-0.3,1-0.7,1.4-1.1
			c0.5-0.5,0.7-1.1,0.9-1.9c0.2-0.8,0.2-2.3,0.2-4.6s-0.1-3.8-0.2-4.6s-0.5-1.4-0.9-1.9c-0.3-0.5-0.8-0.9-1.4-1.2
			c-0.6-0.3-1.3-0.5-2.1-0.5c-0.8,0-1.5,0.2-2.1,0.5c-0.6,0.3-1,0.7-1.4,1.2c-0.5,0.5-0.7,1.1-0.9,1.9
			C323.3,726.3,323.3,727.9,323.3,730.2z"/>
		<path d="M338.2,718.6h3.6l5.1,17.5h0.1l5.1-17.5h3.6l-7.4,23h-2.6L338.2,718.6z"/>
		<path d="M369.1,736.5h-8.4l-1.7,5.1h-3.6l8.1-23h2.9l8.1,23h-3.5L369.1,736.5z M368.1,733.4l-3.3-10h-0.1l-3.3,10H368.1z"/>
		<path d="M385.1,741.9c-1.7-0.2-3-0.6-4.1-1.4s-1.9-1.7-2.5-2.7c-0.2-0.3-0.3-0.7-0.5-1c-0.1-0.3-0.2-0.7-0.3-1.3
			c-0.2-0.9-0.2-2.7-0.2-5.4c0-2.7,0.1-4.4,0.2-5.4c0.2-0.9,0.4-1.7,0.7-2.2c0.5-1.1,1.4-2,2.6-2.9c1.2-0.9,2.6-1.3,4.4-1.3
			c2.2,0,3.9,0.7,5.2,2s2.2,2.9,2.6,4.8h-3.6c-0.3-0.9-0.8-1.7-1.5-2.4c-0.7-0.6-1.7-1-2.7-1c-0.8,0-1.5,0.2-2.1,0.5
			c-0.6,0.3-1,0.7-1.4,1.2c-0.5,0.5-0.7,1.1-0.9,1.9c-0.2,0.8-0.2,2.4-0.2,4.6c0,2.3,0.1,3.8,0.2,4.6c0.2,0.8,0.5,1.4,0.9,1.9
			c0.3,0.5,0.8,0.9,1.4,1.1c0.6,0.3,1.3,0.5,2.1,0.5c1.9,0,3.3-1,4.3-3.1h3.6c-1,3.9-3.2,6-6.7,6.6l-1.3,1.8h0.1
			c0.2-0.1,0.5-0.1,0.9-0.1c0.9,0,1.5,0.2,2.1,0.7c0.5,0.5,0.7,1,0.7,1.7c0,1-0.4,1.8-1.1,2.3c-0.7,0.5-1.7,0.8-2.7,0.8
			c-1,0-2.1-0.3-3.2-0.7l0.6-1.4c0.7,0.3,1.4,0.5,2.2,0.5c1.2,0,1.8-0.5,1.8-1.4c0-0.4-0.2-0.7-0.5-0.9c-0.3-0.2-0.7-0.3-1.1-0.3
			s-0.8,0.1-1.3,0.3l-0.7-0.6L385.1,741.9z"/>
		<path d="M408.7,736.5h-8.4l-1.7,5.1H395l8.1-23h2.9l8.1,23h-3.5L408.7,736.5z M399.3,717.2c0.2-1.1,0.6-2.1,1.2-2.7
			c0.6-0.7,1.4-1,2.3-1c0.4,0,0.8,0.1,1.1,0.2c0.4,0.1,0.7,0.2,1.1,0.4c0.4,0.2,0.7,0.3,1.1,0.4c0.3,0.2,0.6,0.2,0.9,0.2
			c0.3,0,0.6-0.1,0.9-0.3c0.3-0.2,0.5-0.6,0.6-1.1h1.9c-0.2,1-0.5,1.9-1,2.6c-0.6,0.7-1.4,1.1-2.4,1.1c-0.4,0-0.7-0.1-1.1-0.2
			c-0.4-0.1-0.8-0.2-1.2-0.4c-0.8-0.3-1.5-0.6-2.2-0.6c-0.2,0-0.5,0.1-0.8,0.2c-0.3,0.2-0.5,0.6-0.5,1.1L399.3,717.2L399.3,717.2z
			 M407.8,733.4l-3.3-10h-0.1l-3.3,10H407.8z"/>
		<path d="M417.2,730.2c0-2.7,0.1-4.4,0.2-5.4s0.4-1.7,0.7-2.2c0.5-1.1,1.4-2,2.6-2.9c1.2-0.9,2.6-1.3,4.4-1.3
			c1.8,0,3.3,0.5,4.4,1.3c1.2,0.9,2,1.8,2.5,2.9c0.4,0.6,0.6,1.3,0.8,2.2c0.1,0.9,0.2,2.7,0.2,5.4c0,2.6-0.1,4.4-0.2,5.4
			c-0.1,0.9-0.4,1.7-0.8,2.2c-0.5,1.1-1.4,2-2.5,2.8c-1.2,0.9-2.7,1.3-4.4,1.3c-1.8-0.1-3.2-0.5-4.4-1.3c-1.2-0.8-2.1-1.8-2.6-2.8
			c-0.2-0.3-0.3-0.7-0.5-1c-0.1-0.3-0.2-0.7-0.3-1.3C417.3,734.6,417.2,732.8,417.2,730.2z M420.6,730.2c0,2.3,0.1,3.8,0.2,4.6
			s0.5,1.4,0.9,1.9c0.3,0.5,0.9,0.9,1.4,1.1c0.6,0.3,1.3,0.5,2.1,0.5c0.8,0,1.5-0.2,2.1-0.5c0.6-0.3,1-0.7,1.4-1.1
			c0.5-0.5,0.7-1.1,0.9-1.9c0.2-0.8,0.2-2.3,0.2-4.6s-0.1-3.8-0.2-4.6s-0.5-1.4-0.9-1.9c-0.3-0.5-0.8-0.9-1.4-1.2
			c-0.6-0.3-1.3-0.5-2.1-0.5c-0.8,0-1.5,0.2-2.1,0.5c-0.6,0.3-1,0.7-1.4,1.2c-0.5,0.5-0.7,1.1-0.9,1.9
			C420.7,726.3,420.6,727.9,420.6,730.2z"/>
		<path d="M288.2,754.6h14.3v3.3h-10.8v6.6h9.3v3.1h-9.3v6.8h10.8v3.3h-14.3C288.2,777.6,288.2,754.6,288.2,754.6z"/>
		<path d="M307.2,754.6h3.2l6.4,15l6.3-15h3.2v23h-3.4v-14.3h-0.1l-4.7,11.1h-2.8l-4.7-11.1h-0.1v14.4h-3.4L307.2,754.6L307.2,754.6
			z"/>
		<path d="M341.4,754.6h3.2l6.4,15l6.3-15h3.2v23h-3.4v-14.3H357l-4.7,11.1h-2.8l-4.7-11.1h-0.1v14.4h-3.4L341.4,754.6L341.4,754.6z
			"/>
		<path d="M366.1,766.1c0-2.7,0.1-4.4,0.2-5.4c0.2-0.9,0.4-1.7,0.7-2.2c0.5-1.1,1.4-2,2.6-2.9c1.2-0.9,2.6-1.3,4.4-1.3
			c1.8,0,3.3,0.5,4.4,1.3c1.2,0.9,2,1.8,2.5,2.9c0.4,0.6,0.6,1.3,0.8,2.2c0.1,0.9,0.2,2.7,0.2,5.4c0,2.6-0.1,4.4-0.2,5.4
			c-0.1,0.9-0.4,1.7-0.8,2.2c-0.5,1.1-1.4,2-2.5,2.8c-1.2,0.9-2.7,1.3-4.4,1.3c-1.8-0.1-3.2-0.5-4.4-1.3c-1.2-0.8-2.1-1.8-2.6-2.8
			c-0.2-0.3-0.3-0.7-0.5-1c-0.1-0.3-0.2-0.7-0.3-1.3C366.2,770.5,366.1,768.7,366.1,766.1z M369.5,766.1c0,2.3,0.1,3.8,0.2,4.6
			c0.2,0.8,0.5,1.4,0.9,1.9c0.3,0.5,0.8,0.9,1.4,1.1c0.6,0.3,1.3,0.5,2.1,0.5s1.5-0.2,2.1-0.5c0.6-0.3,1-0.7,1.4-1.1
			c0.5-0.5,0.7-1.1,0.9-1.9c0.2-0.8,0.2-2.3,0.2-4.6c0-2.3-0.1-3.8-0.2-4.6c-0.2-0.8-0.5-1.4-0.9-1.9c-0.3-0.5-0.8-0.9-1.4-1.2
			c-0.6-0.3-1.3-0.5-2.1-0.5c-0.8,0-1.5,0.2-2.1,0.5c-0.6,0.3-1,0.7-1.4,1.2c-0.5,0.5-0.7,1.1-0.9,1.9
			C369.5,762.3,369.5,763.8,369.5,766.1z"/>
		<path d="M387.5,754.6h8.6c2.2,0,3.8,0.6,5,1.7c1.1,1.1,1.7,2.6,1.7,4.4c0,1-0.2,1.8-0.7,2.7c-0.2,0.4-0.6,0.8-1,1.1
			c-0.5,0.4-1,0.7-1.6,1.1v0.1c1.2,0.3,2.1,1,2.7,2c0.6,1,0.9,2.1,0.9,3.3c0,2-0.6,3.5-1.8,4.7s-2.6,1.8-4.4,1.8h-9.4v-23H387.5z
			 M390.9,757.7v6.6h4.9c1.3,0,2.2-0.3,2.7-1c0.6-0.6,0.9-1.4,0.9-2.3c0-0.9-0.3-1.7-0.9-2.3c-0.6-0.6-1.5-0.9-2.7-0.9L390.9,757.7
			L390.9,757.7z M390.9,767.4v7h5.2c1.3,0,2.2-0.4,2.7-1.1c0.6-0.7,0.9-1.5,0.9-2.4c0-1-0.3-1.8-0.9-2.5c-0.6-0.7-1.5-1-2.7-1H390.9
			z"/>
		<path d="M408.2,754.6h3.4v23h-3.4V754.6z"/>
		<path d="M417.5,754.6h3.4v19.7h10.8v3.3h-14.3L417.5,754.6L417.5,754.6z"/>
		<path d="M436.5,754.6h3.4v23h-3.4V754.6z"/>
		<path d="M445.8,754.6h7.8c3,0,5.3,1.3,6.8,3.9c0.5,0.9,0.9,1.8,1,2.7c0.1,1,0.2,2.6,0.2,4.9c0,2.5-0.1,4.2-0.3,5.2
			c-0.1,0.5-0.2,0.9-0.3,1.3c-0.2,0.4-0.4,0.8-0.6,1.2c-0.6,1.1-1.5,2-2.7,2.7c-1.1,0.7-2.6,1.1-4.2,1.1h-7.6V754.6z M449.1,774.3
			h4.1c1.9,0,3.3-0.7,4.1-2c0.4-0.5,0.6-1.1,0.7-1.9c0.1-0.7,0.1-2.2,0.1-4.2c0-2-0.1-3.4-0.1-4.3c-0.1-0.9-0.4-1.5-0.9-2.1
			c-0.9-1.3-2.3-2-4-1.9h-4.1V774.3z"/>
		<path d="M477.9,772.4h-8.4l-1.7,5.1h-3.6l8.1-23h2.9l8.1,23h-3.5L477.9,772.4z M477,769.4l-3.3-10h-0.1l-3.3,10H477z"/>
		<path d="M487.2,754.6h7.8c3,0,5.3,1.3,6.8,3.9c0.5,0.9,0.9,1.8,1,2.7c0.1,1,0.2,2.6,0.2,4.9c0,2.5-0.1,4.2-0.3,5.2
			c-0.1,0.5-0.2,0.9-0.3,1.3c-0.2,0.4-0.4,0.8-0.6,1.2c-0.6,1.1-1.5,2-2.7,2.7c-1.1,0.7-2.6,1.1-4.2,1.1h-7.6V754.6z M490.5,774.3
			h4.1c1.9,0,3.3-0.7,4.1-2c0.4-0.5,0.6-1.1,0.7-1.9s0.1-2.2,0.1-4.2c0-2-0.1-3.4-0.1-4.3c-0.1-0.9-0.4-1.5-0.9-2.1
			c-0.9-1.3-2.3-2-4-1.9h-4.1V774.3z"/>
		<path d="M508.5,754.6h14.3v3.3h-10.8v6.6h9.3v3.1h-9.3v6.8h10.8v3.3h-14.3V754.6z"/>
	</g>
</g>
</svg>
